<svg width="64" height="64" viewBox="0 0 64 64" fill="none" xmlns="http://www.w3.org/2000/svg">

    <defs>
        <linearGradient id="borderGrad" x1="0" y1="0" x2="64" y2="64">
            <stop offset="0%" stop-color="#6366F1"/>
            <stop offset="50%" stop-color="#8B5CF6"/>
            <stop offset="100%" stop-color="#6366F1"/>
        </linearGradient>
    </defs>

    <!-- Background -->
    <rect x="6" y="6" width="52" height="52" rx="14"
          fill="url(#borderGrad)"/>

    <!-- Centered Icon -->
    <g transform="translate(18 16) scale(1.25)"
       stroke="white"
       stroke-width="2.6"
       fill="none"
       stroke-linecap="round"
       stroke-linejoin="round">

        <path d="M9 5H7a2 2 0 00-2 2v12a2 2 0 002 2h10a2 2 0 002-2V7a2 2 0 00-2-2h-2"/>
        <path d="M9 5a2 2 0 002 2h2a2 2 0 002-2"/>
        <path d="M9 5a2 2 0 012-2h2a2 2 0 012 2"/>
    </g>

</svg>